<svg height="512pt" viewBox="0 0 512 512" width="512pt" xmlns="http://www.w3.org/2000/svg"><path d="m512 256c0 141.386719-114.613281 256-256 256s-256-114.613281-256-256 114.613281-256 256-256 256 114.613281 256 256zm0 0" fill="#414952"/><path d="m512 256c0-18.628906-2.007812-36.789062-5.789062-54.289062l-117.710938-117.710938-265 344 78.210938 78.210938c17.5 3.78125 35.660156 5.789062 54.289062 5.789062 141.386719 0 256-114.613281 256-256zm0 0" fill="#333940"/><path d="m192 84-68.5 68.5v275.5h265v-344zm0 0" fill="#fff"/><path d="m255.523438 84h132.976562v344h-132.976562zm0 0" fill="#f2f6fc"/><path d="m192 152.5v-68.5l-68.5 68.5zm0 0" fill="#0a64e5"/><path d="m344.773438 152.5c0 17.230469-13.96875 31.199219-31.199219 31.199219s-31.195313-13.96875-31.195313-31.199219 13.964844-31.199219 31.195313-31.199219 31.199219 13.96875 31.199219 31.199219zm0 0" fill="#fe8205"/><path d="m313.574219 183.699219c17.230469 0 31.199219-13.96875 31.199219-31.199219s-13.96875-31.199219-31.199219-31.199219zm0 0" fill="#fe6a16"/><path d="m226.269531 464.199219-28.921875-11.984375-28.917968 11.984375v-102.46875h57.839843zm0 0" fill="#ea2828"/><path d="m226.269531 361.730469h-28.785156l-.136719 90.484375 28.921875 11.984375zm0 0" fill="#c61a1a"/><path d="m238.726562 377.8125c0 22.363281-18.128906 40.488281-40.488281 40.488281s-40.488281-18.125-40.488281-40.488281c0-22.359375 18.128906-40.488281 40.488281-40.488281s40.488281 18.128906 40.488281 40.488281zm0 0" fill="#ffce00"/><path d="m198.238281 337.324219c-.253906 0-.503906.015625-.753906.019531v80.9375c.25.003906.5.019531.753906.019531 22.359375 0 40.488281-18.128906 40.488281-40.488281 0-22.363281-18.128906-40.488281-40.488281-40.488281zm0 0" fill="#fdba12"/><path d="m149.457031 210.160156h211.265625v18.902344h-211.265625zm0 0" fill="#dce1eb"/><path d="m255.523438 210.160156h105.199218v18.902344h-105.199218zm0 0" fill="#cdd2e1"/><path d="m149.457031 252.546875h211.265625v18.90625h-211.265625zm0 0" fill="#dce1eb"/><path d="m255.523438 252.546875h105.199218v18.90625h-105.199218zm0 0" fill="#cdd2e1"/><path d="m149.457031 294.9375h211.265625v18.902344h-211.265625zm0 0" fill="#dce1eb"/><path d="m255.523438 294.9375h105.199218v18.902344h-105.199218zm0 0" fill="#cdd2e1"/></svg>