<svg id="Layer_1" enable-background="new 0 0 512 512" height="512" viewBox="0 0 512 512" width="512" xmlns="http://www.w3.org/2000/svg"><g><path d="m429.914 433.818c40.689-43.741 65.589-102.368 65.589-166.82 0-135.311-109.691-245.002-245.002-245.002-135.311 0-245.002 109.691-245.002 245.002 0 62.946 23.747 120.339 62.758 163.732z" fill="#4fabf7"/><path d="m250.501 512c70.859 0 134.679-30.093 179.413-78.182v-306.917c-8.139-35.437-46.75-37.608-47.245-37.628h-34.397c-4.214 0-7.631-3.417-7.631-7.631v-36.854c-.135-6.802-2.518-37.479-33.828-44.742-.111-.013-.292-.033-.404-.046h-223.964c-7.836 0-14.188 6.352-14.188 14.188v416.542c44.85 49.888 109.879 81.27 182.244 81.27z" fill="#4b6bb2"/><path d="m167.829 0h-85.384c-7.836 0-14.188 6.352-14.188 14.188v416.542c26.624 29.615 60.359 52.708 98.518 66.586-5.008-10.069 1.054-21.214 1.054-21.214v-15c-9.671-12.731 0-25.544 0-25.544v-15c-8.671-13.066 0-25.544 0-25.544v-15c-11.078-11.078 0-25.544 0-25.544v-15c-8.921-12.029 0-25.544 0-25.544v-15c-9.921-13.073 0-25.544 0-25.544v-15c-10.171-12.45 0-25.544 0-25.544v-15c-10.171-12.994 0-25.544 0-25.544v-15c-10.505-13.538 0-25.544 0-25.544v-15c-8.838-12.416 0-25.544 0-25.544v-15c-21.838-17.793-7.5-39.935-7.5-39.935v-15c-14.671-24.976 7.5-41.271 7.5-41.271z" fill="#3c58a0"/><path d="m406.77 67.628-44.483-44.483c-14.82-14.82-34.919-23.145-55.877-23.145h-14.075c43.794 0 46.662 37.532 46.806 44.818v36.824c0 5.043 4.088 9.131 9.131 9.131h34.397s47.245 2.1 47.245 50.1v-17.368c0-20.959-8.325-41.058-23.144-55.877z" fill="#f7f7f7"/><g><path d="m239.086 111.207h-104.161c-4.142 0-7.5-3.357-7.5-7.5s3.358-7.5 7.5-7.5h104.161c4.142 0 7.5 3.357 7.5 7.5s-3.358 7.5-7.5 7.5z" fill="#6087cc"/></g><g><path d="m153.415 56.273h-18.49c-4.142 0-7.5-3.357-7.5-7.5s3.358-7.5 7.5-7.5h18.49c4.142 0 7.5 3.357 7.5 7.5s-3.358 7.5-7.5 7.5z" fill="#e9efff"/></g><g><path d="m361.125 151.751h-226.2c-4.142 0-7.5-3.357-7.5-7.5s3.358-7.5 7.5-7.5h226.2c4.142 0 7.5 3.357 7.5 7.5s-3.358 7.5-7.5 7.5z" fill="#6087cc"/></g><g><path d="m361.125 192.295h-226.2c-4.142 0-7.5-3.357-7.5-7.5s3.358-7.5 7.5-7.5h226.2c4.142 0 7.5 3.357 7.5 7.5s-3.358 7.5-7.5 7.5z" fill="#6087cc"/></g><g><path d="m336.925 232.839h-202c-4.142 0-7.5-3.357-7.5-7.5s3.358-7.5 7.5-7.5h202c4.142 0 7.5 3.357 7.5 7.5s-3.358 7.5-7.5 7.5z" fill="#6087cc"/></g><g><path d="m266.592 273.383h-131.667c-4.142 0-7.5-3.358-7.5-7.5 0-4.143 3.358-7.5 7.5-7.5h131.667c4.142 0 7.5 3.357 7.5 7.5s-3.358 7.5-7.5 7.5z" fill="#6087cc"/></g><g><path d="m294.259 313.927h-159.334c-4.142 0-7.5-3.357-7.5-7.5s3.358-7.5 7.5-7.5h159.333c4.142 0 7.5 3.357 7.5 7.5s-3.357 7.5-7.499 7.5z" fill="#6087cc"/></g><g><path d="m307.925 354.471h-173c-4.142 0-7.5-3.357-7.5-7.5s3.358-7.5 7.5-7.5h173c4.142 0 7.5 3.357 7.5 7.5s-3.358 7.5-7.5 7.5z" fill="#6087cc"/></g><g><path d="m302.925 395.015h-168c-4.142 0-7.5-3.357-7.5-7.5s3.358-7.5 7.5-7.5h168c4.142 0 7.5 3.357 7.5 7.5s-3.358 7.5-7.5 7.5z" fill="#6087cc"/></g><g><path d="m361.125 435.559h-226.2c-4.142 0-7.5-3.357-7.5-7.5 0-4.142 3.358-7.5 7.5-7.5h226.2c4.142 0 7.5 3.358 7.5 7.5 0 4.143-3.358 7.5-7.5 7.5z" fill="#6087cc"/></g><g><path d="m292.335 476.103h-157.41c-4.142 0-7.5-3.357-7.5-7.5s3.358-7.5 7.5-7.5h157.41c4.142 0 7.5 3.357 7.5 7.5s-3.358 7.5-7.5 7.5z" fill="#6087cc"/></g><path d="m409.565 192.102 24.325 49.287c1.648 3.34 4.834 5.654 8.52 6.19l54.392 7.904c9.281 1.349 12.987 12.754 6.271 19.3l-39.358 38.365c-2.667 2.599-3.884 6.345-3.254 10.015l9.291 54.172c1.585 9.243-8.116 16.292-16.417 11.928l-48.65-25.577c-3.296-1.733-7.234-1.733-10.531 0l-48.65 25.577c-8.301 4.364-18.003-2.685-16.418-11.928l9.291-54.172c.629-3.671-.587-7.416-3.254-10.015l-39.358-38.365c-6.716-6.546-3.01-17.951 6.271-19.3l54.392-7.904c3.685-.536 6.871-2.85 8.519-6.19l24.325-49.287c4.15-8.409 16.142-8.409 20.293 0z" fill="#ffc839"/><path d="m20.538 351.647c9.974-13.498 15.894-30.15 15.894-48.123v-65.205c0-19.093-6.687-36.69-17.813-50.603-8.5 24.868-13.12 51.535-13.12 79.282 0 29.757 5.32 58.267 15.039 84.649z" fill="#73c3f9"/><path d="m393.114 53.972-30.827-30.827c-14.82-14.82-34.919-23.145-55.877-23.145h-14.075c43.793 0 46.662 37.532 46.806 44.818v36.824c0 5.043 4.088 9.131 9.131 9.131h20.352c-5.46-32.895 24.49-36.801 24.49-36.801z" fill="#e9efff"/><path d="m496.801 255.483-54.392-7.904c-1.853-.269-3.579-.99-5.047-2.063l-35.163 45.057c-1.983 2.541-2.574 5.901-1.578 8.966 1.033 3.181 3.632 5.605 6.877 6.414l52.996 13.224c.422-2.263 1.525-4.378 3.219-6.03l39.358-38.365c6.716-6.545 3.011-17.95-6.27-19.299z" fill="#ffdd40"/><g><path d="m392.99 358.825 9.291-54.172c.63-3.67-.587-7.416-3.254-10.015l-39.358-38.365c-2.53-2.466-3.579-5.621-3.411-8.669l-54.223 7.879c-9.281 1.349-12.987 12.754-6.271 19.3l39.358 38.365c2.667 2.6 3.884 6.345 3.254 10.015l-9.291 54.172c-1.585 9.243 8.117 16.292 16.418 11.928l47.823-25.142c-.507-1.623-.659-3.413-.336-5.296z" fill="#ffb332"/></g></g></svg>